<svg xmlns="http://www.w3.org/2000/svg" width="450" height="189" viewBox="0 0 450 189">
  <metadata><?xpacket begin="﻿" id="W5M0MpCehiHzreSzNTczkc9d"?>
<x:xmpmeta xmlns:x="adobe:ns:meta/" x:xmptk="Adobe XMP Core 5.6-c142 79.160924, 2017/07/13-01:06:39        ">
   <rdf:RDF xmlns:rdf="http://www.w3.org/1999/02/22-rdf-syntax-ns#">
      <rdf:Description rdf:about=""/>
   </rdf:RDF>
</x:xmpmeta>
                                                                                                    
                                                                                                    
                                                                                                    
                                                                                                    
                                                                                                    
                                                                                                    
                                                                                                    
                                                                                                    
                                                                                                    
                                                                                                    
                                                                                                    
                                                                                                    
                                                                                                    
                                                                                                    
                                                                                                    
                                                                                                    
                                                                                                    
                                                                                                    
                                                                                                    
                                                                                                    
                           
<?xpacket end="w"?></metadata>
<defs>
    <style>
      .cls-1 {
        fill: #fff;
      }

      .cls-1, .cls-2 {
        fill-rule: evenodd;
      }
    </style>
  </defs>
  <path id="Заливка_цветом_2" data-name="Заливка цветом 2" class="cls-1" d="M224,43c3.245,0.828,1.528-.49,3,2C224.611,44.158,225.355,44.6,224,43Zm18,2c-0.678,8.214-6.826,18.9-12,23-1.31.928-1.255-.349-3,1,0,0,3.971.438,2,1h-1a17.676,17.676,0,0,1-9,7V75c5.109-7.972,2.074-23.33,8-27,1.846-.062.9,0.944,2-1a6.107,6.107,0,0,1-2-2h2C230.986,43.911,237.358,44.856,242,45Zm-32,1c-0.17,8.793-3.844,13.61-6,20h2c4.057-3.875,10.418-7.971,15-11v2c-2.169,3.4-3.011,17.481-3,23h2c5.128-7.489,15.828-11.408,21-19,3.84-5.636,2.056-13.2,11-14,7.772,4.764,20.394,2.461,30,5,17.516,4.629,38.815,10.241,58,11,9.555,15.57,10.145,56.9-12,58-10.188-7.767-31.778-3.275-46-7-5.226-1.369-38.074-10.34-42-9-6.793,2.318-20,6.594-32,4-11.9-2.572-26.541.908-40-2-17.29-3.735-41.674-1.912-61-2a14.124,14.124,0,0,1-1-4c1.954-2.6,2.049-7.312,4-10a17.078,17.078,0,0,0,12,7V97c-12.811-8.353-10.083-26.889-9-44h5V52c-2.006-1.4-2.066-1.346-3-4C142.931,43.908,178.577,46,210,46Zm1,1h11v2c-3.221,2.275-2.875,3.52-4,6l-2-1c-0.02,3.376-1.222,3.116-4,6h-2V56l3-1C210.966,51.975,211.252,51.457,211,47ZM90,49c3.754-.012,14.276,1.152,17,3,2.6,4.012,1.132,16.013,1,22,1.105,1.742,2.124,6.9,3,11h-2c-4.706-7.2-9.731-12.126-12-20H96v3c4.492,4.73,9.836,17.523,10,25-1.546,1.133-.843,1.085-3,2v1h-1c0.244-16.82-22.955-30.8-34-25-4.685,1.777-4.139,5.784-8,8-2.623-2.854-2.581-1.8-6-3,1.5-3.989,2.026-8.056,2-14h2c-0.026,2.191-.016,6.16,2,9V60c2.934,0.513,15.376-3.317,18-5,0.011,3.89,4.81,12.614,8,14V67c-4.532-4.348-3.8-8.784-3-15h2C86.441,50.843,88.666,50.256,90,49Zm60,5c-3.528,2.575-10.827,2.141-17,2v1c2.305,1.345,1.823,1.219,2,2-4.271,3.586-13.141,3.132-15,7,4.568-.111,9.9-0.084,13,1v1h-1c-2.877,2.758-7.345,4.03-12,5v1h7c1.953-1.447,5.692-1.708,7-1,3.633,3.617,5.574,8.09,10,11V81c-3.332-3.032-6.186-6.407-7-12,4.236-2.661,7.253-5.6,13-7a75.424,75.424,0,0,0,1,15c7.738,5.239,9.641,9.127,24,9,2.791-2.785,8-4.567,10-8,2.073-3.555.545-6.858,4-9,1.982,3.295,4.834,7.8,8,10V74C184.406,58.819,178.291,53.8,150,54Zm136,8c-3.366,2.518-8.33,2.71-12,5-5.459,3.406-15.784,12.646-18,19h2a18.525,18.525,0,0,1,10-8c-0.213,8.432,3,13.05,9,15,8.5,7.06,22.666-1.812,26-7,2.544-3.628,1.1-11.6,5-14,3.305,4.072,6.6,3.5,7,11l-16,17h3c3.62-3.633,14.19-13.627,20-14,1.86-1.137,7.157-.825,9-2-2.328-.2-2.826-0.193-4-1h1c1.586-1.753,4.041-1.636,6-3-3.143-.771-9.988-3.692-12-6,3.594-.682,10.26-1.942,13-4-6.307.228-14.545,0.751-18-2h1c1.188-.814,4.59-1.489,6-2V65H314C308.256,60.825,295.823,61.864,286,62ZM163,64c4.9,0.132,7,.76,8,5-2.184,2.211-1.142,3-5,4-2.2-2.088-3.689-1.716-5-5C162.262,66.641,162.365,66.232,163,64Zm188,2c9.123,0.851,13.563,4.728,19,7,2.442,1.02,5.661-1.586,8-1,5.162,1.294,10.233,3.5,17,6-1.393,10.2-4.266,21.355-6,31h1v-2c6.925-4.8,7.2-23.78,15-26,1.44,4.909,2.058,11.508,2,19-5.947,5.857-2.184,15.4-14,16-1.581.9-4-1-4-1-3.713,2.831-7.38,4.278-13,5v-1a6.1,6.1,0,0,0,2-2h-1c-1.35,1.624-.64,1.121-3,2v-1h1l3-4h-1c-4.266,4.725-10.989,13.514-19,14l-1-3c5.987-6.007,7.142-19.321,7-32h-1c-4.168,7.936-10.566,27.126-26,29v-2c10.624-5.811,13.981-27.648,16-39C353.705,77.033,349.405,71.225,351,66ZM87,99V93a8.893,8.893,0,0,0,3-3c-3.155.175-.836-0.233-3-3v1c-6.612,10.154-4.732,27.717-21,28-3.843-2.877-6.363-1.455-7-8,4.983-7.145,3.111-22.058,5-32,2.072-1.283,2.3-2.077,5-3,2.442-1.623,6.689-.654,9,0,14.322,4.055,23.2,11.728,23,30H99C96.321,100.5,91.808,99.309,87,99Zm92-27c2.542,1.456,1.128-.217,2,3h-1V74C179.2,72.979,179.645,73.726,179,72Zm103,0c4.1,0.865,6.154,1.58,7,6-2.184,2.211-1.142,3-5,4-2.2-2.088-3.689-1.716-5-5A18.709,18.709,0,0,0,282,72ZM178,75h2C178.812,76.609,179.582,76.224,178,75Zm4,0h2v2h-2V75Zm-6,1,3,1v3h-1V79h-1ZM51,78c4.614,0.135,5.578,1.087,9,2a15.7,15.7,0,0,1,1,5c-2.546,3.918-2.1,13.068-2,19-8.471,3.084-6.784,7.944-21,8-1.533-2.464-2.291-2.276-3-6,3.593-4.767,3.8-11.774,7-17C44.388,85.1,48.445,81.814,51,78Zm116,6V80c3.63-.544,5.871-2.009,8-1,0.752,1.073.6,0.946,1,3l-3,1C171.582,83.961,169.727,83.976,167,84Zm-9-5c5.189-.021,7.225.385,8,4h-2C162.64,81.962,159.671,82.463,158,79Zm140,0c2.542,1.456,1.128-.217,2,3h-1V81C298.2,79.979,298.645,80.726,298,79Zm-4,6c1.93,1.545,2.783,2.457,2,4-1.8,2.572-3.395,3.182-7,4V89A10.668,10.668,0,0,0,294,85Zm-8,4v4c-3.6-.136-5.078-0.248-6-1-1.624-1.35-1.121-.64-2-3h4C283.216,89.745,282.992,89.137,286,89Z"/>
  <path id="Заливка_цветом_1" data-name="Заливка цветом 1" class="cls-2" d="M44,60c12.9-1.379,27.377-5.55,39-10,4.692-1.8,5.528-4.409,12-5,4.135,3.209,13.034,5.2,19,6-1.319-3.429-1.566-4.514,2-6,6.76-5.114,19.413-1.407,30-3,9.373-1.41,27.147-3.365,38-1,8.966,1.954,26.452,5.589,35,3-1.021-.8-0.274-0.355-2-1-1.893-1.683-5.136-2.28-7-4,18.926-.257,43.14,4.893,60,9,27.679,6.742,56.354,5.4,83,13l67,22v1c-2.575,1.979-2.9,3.376-3,8,2.666,2.6,3.692,5.959,6,9,1.862,2.453,5.131,3.352,7,6-5-.193-9.39-0.113-12,2h2a11.725,11.725,0,0,0,5,2v1c-9.791.079-14.671,4.526-21,7l-17,1c-3.991,1.361-12.991,3.41-17,6-2.855,1.844-3.134,4.539-7,6-4.5-2.707-11.528-1.443-17-3-10.7-3.046-23.088-7.261-34-10H298l-55-12c-2.455-.182-4.133,2.425-6,3-6.036,1.859-19.576,2.634-27,1-13.072-2.878-29.254-2-44-2H149c-7.172-1.581-18.591.856-27-1-9.614-2.122-23.057-2.766-32-4-3.778,6.253-12.032,16.649-25,13-2.086-.587-5.194-3.478-7-4-3.749-1.083-6.831,1.521-9,2-5.79,1.279-10.688-1.945-15-3a25.083,25.083,0,0,1-1-8c1.284-1.748,1.683-4.222,2-7-4.679-1.55-11.131-2.549-14-6,6.925,0.3,11.266-.132,14-4,2.979-3.734,1.235-6.1,0-10,3.714-.811,8.412-2.969,10-6-2.076-.372-1.925-0.242-3-1C45.371,67.252,44.628,64.64,44,60ZM210,46l-69-1c-9.089,0-22.605-.816-26,5a8.892,8.892,0,0,1,3,3h-5c-1.518,22.141-2.728,27.618,7,44h-3l-8-6-3,13c7.468,2.516,20.741,1.081,30,1,7.285,4.405,22.66-1.023,32,1,6.222,1.348,16.534-.618,24,1,9.739,2.11,28.309,4.863,40,2,4.026-.986,7.032-4.239,12-4l23,6c9.243,2.439,18.5,3.083,27,5h20c6.264,1.544,11.332,4.571,19,5,4.864-6.933,11.484-13.661,14-23,3.9-14.483-1.182-34.711-13-35-6.629-4.475-17.234-2.684-26-5-18.534-4.9-40.337-9.89-61-11-3.251,13.18-14.875,25.551-26,31V76c10.363-5.99,19.589-18.1,21-31-8.048.047-10.913-1.7-18-2v1a8.892,8.892,0,0,1,3,3c-5.125,2.458-3.63,21.089-8,27a88.83,88.83,0,0,1,2-19h-1c-3.166,4.855-9.741,9.37-16,11V64C208,60.807,209.8,52.816,210,46Zm1,1c0.354,4.4,1.574,6.947,0,8a15.705,15.705,0,0,0-1,5h2V59a15.1,15.1,0,0,0,10-12H211ZM87,99c6.764,0.379,9.92,3.288,15,5,0.965-4.948,2.612.148,3-7,3.475-5.058-.75-13.239-2-17h1a19.14,19.14,0,0,0,8,7V84c-7.022-6.464-1.164-21.333-5-33-12.393-.379-12.677-1.785-24,1-0.335,4.825.943,8.809-1,12V63c-3.8-3.819-1.3-7.3-8-8-3.992,3.916-7.527,3.721-14,5,0.141,3.671.435,8.876-1,11,0.123-5.461-.621-7.645-3-9v9c-1.264,1.747-1.5,4.108-1,5a20.463,20.463,0,0,0,7,3c0.821-5.129,3.218-6.083,6-9,4.009,0.611,8.483-.3,11,1,0,0,3.971.438,2,1H80c-1.428.679-9.78,0.4-13,1-1,1.625-3.413,3.308-4,5V93c-1.369,6.172-3.474,12.251-4,19,3.975,2.329,6.311,3.881,13,4,2.485-3.863,6.6-7.108,9-11l6-18h1v4C88.055,91.69,87.128,94.995,87,99Zm79-47c17.182-.462,22.884,3.109,31,11v2h-1C187.139,52.194,176.43,58.969,166,52Zm-16,2c22.48-.681,46.482,4.415,47,25h-1c-2.095-3.819-4.52-8.452-9-10-0.676,10.2-6.511,11.874-12,17-12.051.143-22.068-2.634-25-11-1.827-5.214,2.011-10.134-2-13-4.487,3.38-9.713,3.207-11,10,2.551,2.634,3.752,6,6,9l13,11c5.951-.161,18.029-1.6,22,1l-22,1c-8.5-2.793-18.183-14.211-22-22l-11,2V73h1c2.661-2.43,6.73-3.145,9-6h-1c-2.334-1.413-8.687-.543-11-2,4.509-.6,9.673-3.276,15-6a35.383,35.383,0,0,1-3-3h13C146.86,55.351,149.144,54.662,150,54Zm134,3c0.92,1.578-17.7,11.5-23,13V69h1C267.115,62.057,277.653,62.653,284,57Zm2,5c9.472-.333,33.077.463,36,5a14.347,14.347,0,0,0-5,1v1c3.761,0.3,9.5,1.118,12,3-3.926.072-6.5,0.373-8,3h2a41.074,41.074,0,0,0,11,5v1c-3.863.087-4.261,0.023-6,2h-1v1c2.328,0.2,2.826.193,4,1l-14,1-6,8c-5.127,3.913-24.3,14.254-34,6,8.106,0.063,16.222-.487,23-1,4.824-7.1,14.32-9.942,15-21-3.208-2.1-4.861-4.645-9-6a32.325,32.325,0,0,1-5,17c-2.428-1.726-5.87-3.079-7-3l-5,3a14.341,14.341,0,0,1-1,5c2.076,0.372,1.924.242,3,1H280a11.725,11.725,0,0,0-5-2c-1.534-2.452-4.607-3.776-6-6-1.957-3.123.155-6.948-3-9-2.022,2.563-6.266,5.243-9,7V83c5.569-3.609,8.724-10.356,14-14C275.46,65.919,281.754,65.364,286,62ZM163,64c-0.77,3.1-2,3.84-1,6,1.924,1.877,3.524,2.514,7,3,0.736-3.024,1.464-3.527,2-7h-2C167.21,64.35,166.488,64.254,163,64Zm188,2c-0.842,3.7.868,10.518,2,14,1.447,4.451-1.643,9.846-3,15q0.5,2,1,4l-3,1c-1.379,2.545-1.877,10.76-2,11l-2-1c-2.383,4.176-5.323,7.566-7,12h3c4.4-4.52,11.289-6.8,15-12,3.259-4.564,3.887-12.3,8-16V93h1v10c-1,1.506-6,24-6,24,1.3,0.877,2.467.894,5,1,2.834-4.6,8.6-11.133,14-13v1a8.894,8.894,0,0,0-3,3h2c2.327,1.237,16.952-2.713,22-3,6-9.17,9.081-15.617,9-32-2.3-1.605-1.51-2.142-5-3-2.319,7.835-7.506,15.24-10,23h-1V97c3.447-4.408,3.445-14.618,4-19h-1V77C379.419,76.544,368.246,68.445,351,66Zm-92,4h2v1h-1C259.309,71.132,258.056,71.053,259,70Zm23,2a17.276,17.276,0,0,1-3,5c0.631,1.754.193,0.971,1,2,1.924,1.877,3.524,2.514,7,3,0.736-3.024,1.464-3.527,2-7C286.539,73.861,284.96,72.795,282,72ZM51,78c-6.063,9.328-14.045,17.262-16,31,3.544,2.231,5.373,3.1,12,3,6.927-5.242,12.33-4.975,12-18,1.951-2.868,2.04-8.345,2-13l-3-1C56.081,78.228,54.864,78.1,51,78Zm116,2v4a34.057,34.057,0,0,0,8-1,14.124,14.124,0,0,0,1-4h-1V78C171.886,78.678,170.5,79.507,167,80Zm-9-1c1.66,1.116,1.069,1.77,2,0h-2Zm3,0c0.828,3.245-.49,1.528,2,3V79h-2Zm3,1c0.828,3.245-.49,1.528,2,3V80h-2Zm-31,5c2.26,1.477,5.061,2.614,2,4V88C133.376,86.65,133.879,87.36,133,85Zm3,0c2.684,0.891,2.589,1.028,4,3h1v1h-2C137.715,87.166,137.032,87.288,136,85Zm182,3c0.752,1.073.6,0.946,1,3-3.394,2.28-4.778,5.495-9,7V97h1C313.212,93.644,316.026,91.787,318,88ZM186,89c2.422,0.34.883,0.326,4,0v1h-1c-2.155,2.285-4,3.416-8,4V93h1C183.271,91.316,184.729,90.684,186,89Zm141,2c1.243,1.567.642,0.51,0,2-1.48,1.617-1.107,2.579-4,3Zm-70,1,3,1v1C257.611,93.158,258.355,93.6,257,92ZM64,94c2.042,3.135-.123,6.692-1,10H62v-3C63.284,99.252,63.683,96.778,64,94Zm7,0h4c1.3,2.418,1.8,2.833,2,7-2.893,3.406-2.367,8.122-7,10-1.295.877-2.467,0.894-5,1l-1-2a20.141,20.141,0,0,0,7-1c1.988-4.193,3.718-6.754,4-13C72.755,95.413,72.345,95.252,71,94Zm189,0c4,1.023,5.937,3.13,9,5C266.09,102.892,262.684,98.345,260,94Zm67,1c1.243,1.567.642,0.51,0,2-0.345.312-1.3,3.347-3,2ZM51,96c1.828,1.568,1.4.882,2,4H52v1H51V96Zm-1,5c0.566,0.713,1.442.042,1,2H50c-2.069,3.387-3.78,5.531-9,6v1c-1.01.99-.989-0.985-1-1a6.1,6.1,0,0,1-2-2h3C44.554,108.753,48.169,103.987,50,101Zm307,10c-3.185,5-8.5,10.315-15,12,1.021,0.8.274,0.355,2,1,2.319,1.629,6.191,1.919,10,2v-1h1C355.7,120.262,359.037,114.616,357,111Z"/>
</svg>
