<svg xmlns="http://www.w3.org/2000/svg" width="1250" height="1250" viewBox="0 0 1250 1250">
  <metadata><?xpacket begin="﻿" id="W5M0MpCehiHzreSzNTczkc9d"?>
<x:xmpmeta xmlns:x="adobe:ns:meta/" x:xmptk="Adobe XMP Core 5.6-c142 79.160924, 2017/07/13-01:06:39        ">
   <rdf:RDF xmlns:rdf="http://www.w3.org/1999/02/22-rdf-syntax-ns#">
      <rdf:Description rdf:about=""/>
   </rdf:RDF>
</x:xmpmeta>
                                                                                                    
                                                                                                    
                                                                                                    
                                                                                                    
                                                                                                    
                                                                                                    
                                                                                                    
                                                                                                    
                                                                                                    
                                                                                                    
                                                                                                    
                                                                                                    
                                                                                                    
                                                                                                    
                                                                                                    
                                                                                                    
                                                                                                    
                                                                                                    
                                                                                                    
                                                                                                    
                           
<?xpacket end="w"?></metadata>
<defs>
    <style>
      .cls-1 {
        fill: #fff;
      }

      .cls-1, .cls-2, .cls-3 {
        fill-rule: evenodd;
      }

      .cls-2 {
        fill: #010f19;
      }

      .cls-3 {
        fill: #ffaf43;
      }
    </style>
  </defs>
  <path id="Заливка_цветом_1" data-name="Заливка цветом 1" class="cls-1" d="M1029,200c-0.24,13.34-4.04,27.928-7,40-4.21,17.182-4.08,34.947-8,51q-1,9.5-2,19-7.5,39.5-15,79c-7.9,27.762-15.941,55.6-26,80-1.7,4.121-.953,8.069-3,12-3.28,6.3-9.451,12.073-13,19-1.754-.631-0.971-0.193-2-1-15.338-5.2-24.529-36.092-31-51-1.878-4.328-1.759-8.215-5-11v1l6,36c5.546,20.506,10.042,41.209,18,60,16.262,38.4,38.082,72.1,60,105,7.42,11.136,27.27,29.77,28,45H971v2l7,39c7.584,26.76,15.192,53.71,24,79,2.24,6.438,11.53,34.338,10,38-7.24,7.115-17.015,10.514-26,16-39.422,24.071-88.842,33.8-153,34,1.294-29.181,11.036-58.356,21-81,5.225-11.875,13.565-23.327,19-35h-2c-7.318,5.285-20.145,7.038-28,12-16.536,10.446-27.785,27.2-38,44-37.256,61.282-38.973,145.409-97,187-14.6,10.46-31.515,20.39-54,23v-2c6.205-6.68,9.071-17.17,14-25,9.019-14.32,31.112-41.458,23-68-1.875-6.135-5.365-12.455-8-18-27.314-2.2-75.146-11.542-104-2-14.114,4.667-16.309,10.743-25,20-0.561,16.194,4.418,23.214,11,34,7.308,11.976,10.713,25.01,18,37,4.311,7.09,10.5,15.5,13,24H582c-6.683-6.4-18.221-8.84-26-14a171.542,171.542,0,0,1-49-50c-31.564-50.053-44.981-117.057-79-164-11.4-15.73-28.992-34.662-52-38v1c7.44,8.259,9.438,21.97,14,33a599.653,599.653,0,0,1,27,82h-8c-7.3,4.766-48.959-.24-56-2-18.885-4.721-34.852-5.317-51-12-25.973-10.75-46.666-26.478-69-40a592.683,592.683,0,0,0,22-56c6-18.388,6.624-37.048,12-56,3.71-13.08,9.682-27.828,11-42H217a15.7,15.7,0,0,1-1-5c16.737-11.384,26.04-29.615,37-47,8.514-13.5,19.461-26.51,28-40,9.413-14.87,17.249-30.745,26-46a123.45,123.45,0,0,0,6-14v-8c0.6-1.727,3.341-3.979,4-6v-6l3-1q0.5-6,1-12c3.6-12.242,15.68-43.707,4-59,0.2,14.688-15.6,35.507-22,46-3.81,6.243-2.132,13.519-12,14-3.39-14.73-12.506-26.139-18-38-7.5-16.183-11.831-34.628-17-53-3.233-11.489-3.44-23.832-6-35V348c-11.83-50.333-15.782-103.9-34-148h18c5.044,3.083,13.791,1.282,20,3,12.515,3.462,25.519,6.989,37,12,60.054,26.208,108.893,89.272,109,176h1c7.47-7.634,17.395-13.553,26-20,17.3-12.959,32.969-28.38,52-40,11.425-6.976,24.652-9.918,38-15,1.121,4.051,3.928,6.317,5,10,1.622,5.575,3.4,33.571,3,36q0.5,6.5,1,13c-1.375,4.257-7.119,8.673-9,13-7.44,17.115-14.494,56.857-8,80,5.808,20.7,17.487,35.13,33,46,10.842,7.6,28.791,15.327,34,28,5.371,13.067,4.87,27.356,9,41,9.951,32.875,16.074,69.1,26,102,4.46,14.787,5.88,29.683,11,43h2v-2c7.337-11.086,7.674-31.785,12-46,9.747-32.028,15.12-68.583,25-101,3.949-12.955,3.709-25.379,9-37,4.729-10.388,29.272-23.743,39-31,17.168-12.807,24.971-31.75,31-56,13.768-55.377-38.593-91.091-19-147,32.72,14.823,61.18,34.981,89,55,12.164,8.753,22.964,20.054,36,28V378c3.832-6.3,1.914-17.506,4-25,3.778-13.575,7.572-27.57,13-40C888.175,255.353,946.466,200.046,1029,200ZM607,379c30.944-.808,42,6.741,59,19,3.365,2.427,7.139,3.054,9,7,3.221,4.776,8.981,36.9,9,45,0,2.008-12.278,21.578-14,24-3.4,4.79-3.5,12.271-10,14-5.914,4.663-15.357,4-24,6-18.96,4.379-41.723-1.832-51-11-4.875-4.818-7.16-12.13-11-18-4.014-6.136-10.508-12.718-12-21,6.277-9.429,2.539-26.655,9-36C581.238,397.505,598.782,391.181,607,379ZM376,606c-0.327,36.907,14.289,71.365,30,93,6.548,9.017,19.439,12.919,27,21,3.993,4.267,6.481,11.139,10,16,6.992,9.658,25.51,18.273,38,22,15.821,4.721,33.45-3.035,51,1l11,3c6.546,11.807,14.629,24,21,36,3,5.643,3.746,12.582,11,14,0.672-57.78-.973-116.308-24-151-17.293-26.054-47.105-44.425-72-63-26-19.4-49.042-47.726-66-76h-1v2c-3.164,3.979-2.516,9.04-4,15-7.771,31.2,6.53,59.86,9,86h-2C410.645,620.978,382.726,607.116,376,606Zm453-82c-13.58,23.859-25.745,49.006-47,65-24.28,18.27-55.261,34.284-73,59-26.29,36.629-37.032,100.162-33,163h2c0.71-14.147,16.318-30.868,23-41,1.906-2.891,3.975-10.559,7-12h21c4.416-2.689,12.37-.627,18-2,14.171-3.456,28.531-6.565,41-12,15.084-6.576,31.605-17.538,41-30,3.379-4.482,6.063-10.032,10-14,22.811-22.992,35.719-53.2,36-99h-2c-6.619,8.5-27.878,21.156-40,24v-6c7.956-11.053,16.778-60.338,10-79-2.184-6.012-6.783-10.968-10-16h-4Z"/>
  <path id="Заливка_цветом_2" data-name="Заливка цветом 2" class="cls-2" d="M1104,166c0.09,6.457.11,7.543,0,14-17.07,11.644-19.66,33.222-26,56-9.99,35.9-10,86.384-10,131,0,29.585,1.86,60.64-5,85-8.06,28.626-18.11,57.2-31,82-6.85,13.174-19.88,30.42-23,46,8.26,5.422,10.3,13.989,16,22,3.91,5.493,9.51,10.717,14,16,4.7,5.526,12.13,10.589,18,15,5.26,3.949,9.68,10.092,15,14a254,254,0,0,0,57,32,138.6,138.6,0,0,1,0,18c-11.28,3.049-18.55,13.788-27,20-19.19,14.1-38.79,24.577-72,25-0.49,34.765,11.37,61.616,26,82,4.77,6.652,21.83,17.553,23,25-5.23,6.663-8.68,18.659-14,26-10.97,15.128-35.94,32.043-54,40-36.112,15.914-77.112,25.855-117,38-21.455,6.533-44.751,6.5-62,17-36.968,22.5-48.485,71.15-73,106-4.941,7.02-9.243,14.92-16,20-16.071,12.07-32.271,17.64-56,23q-21,.495-42,1c-5.052,1.14-12.691,7.07-19,5-2.391-.79-4.4-5.09-7-6-5.488-1.92-37.633.86-42,2-4.562,1.19-11.571,5.63-18,4-32.592-8.28-48.842-32.05-66-56-7.687-10.73-17.827-18.46-23-32h-3c-0.057-16.14-3.776-21.37-9-31-4.305-7.937-6.972-17.906-14-23-11.126-8.064-28.864-9.308-43-14-25.29-8.395-52.707-16.612-78-25-11.951-3.963-24.921-4.387-36-10-20.047-10.156-40-24.989-59-37-13.686-8.649-27.629-16.673-41-25-3.965-2.469-14.021-4.941-16-9V845c29.1-14.174,48.8-59.479,49-103-34.451.9-56.655-18.077-77-32-5.807-3.974-20.809-9.031-22-17-2.362-3.537-.341-9.556,0-14,18.224-7.091,33.6-14.431,48-25,4.41-3.237,7.7-8.745,12-12,5.113-3.872,11.19-7.944,15-13a211.469,211.469,0,0,1,19-22c5.714-5.723,28.469-23.306,30-30-6.29-7.049-7.721-17.866-13-26-21.14-32.576-34.164-74.132-46-116-4.918-17.4-3.9-36.847-8-55V365c-6.2-27.764,2.267-65.268-4-93q-0.5-11-1-22c-4.144-17.935-5.553-36.321-12-52-3.243-7.887-9.9-15.86-11-25,7.644-6.263,5.339-11.36,21-11,3.24-2.123,11.987-1,17-1,15.144,0,29.233.96,42,4,15.2,3.62,28.6,2.289,43,7,34.091,11.151,71.213,26.062,99,44,3.667,2.367,10.088-.459,15,1,8.108,2.408,22.016,6.205,23,16a6.1,6.1,0,0,0-2,2c13.5,3.711,25.343,12.916,38,18,12.823,5.151,25.836,5.67,40,9,20.523,4.825,52.223-8.27,63-15l8-1c1.605-.651,3-3.5,5-4,4.887-1.21,5.513,2.863,12,1,15.369-4.413,30.156-9.967,51-10v2c2.044,3.457-.876,7.732,1,11,3.208-2.95,7.575-3.1,12-5,5.547-2.384,11.992-5.4,19-7,10.164-2.32,19.78,2.684,26,5,17.673,6.582,35.273,13.547,54,18,7.112,1.691,9.121-4.438,16-2,0.508,0.18,3.049,2.776,4,3,3.686,0.866,17.876-3.057,26-3v3c33.134,0.343,36.243-24.587,54-38a314.948,314.948,0,0,1,49-30c22.813-11.387,50.18-17.054,77-24,8.795-2.278,15.984-.9,25-3,5.92-1.377,15.41-2.388,22-3h21c1.66-.361,5.79-1.53,9-1l34,2ZM217,200l11,38,17,77q1,14,2,28c7.052,30.356,5.994,61.65,15,89,3.714,11.279,7.954,25.085,14,35,5.623,9.221,12.953,20.386,15,33h5c7.729-16.756,17.757-33.431,27-49,1.791-3.017,1-8.959,3-12,1.32,9.118,6.778,20.1,4,32-8.018,34.344-20.09,69.431-35,98-12.614,24.169-29.533,45.737-44,69-6.07,9.761-13.023,20.021-21,28-4.916,4.917-12.324,7.9-13,17h62v2c-7.737,11.607-9.539,40.267-14,56-10.063,35.492-16.933,67.711-32,97,6.839,2.271,12.233,9.181,18,13a286.62,286.62,0,0,0,42,23c16.838,7.321,35.8,11.3,55,16l30,3,38-1c-0.637-11.574-6.711-23-10-33-7.009-21.3-10.84-39.759-19-59-3.361-7.924-9.432-15.83-11-25h1c7.848,6.361,19.866,8.292,28,14,16.109,11.3,28.624,30,39,47,7.922,12.983,11.737,27.474,18,42,21.036,48.79,37.836,106.117,78,136,15.333,11.41,28.482,28.16,55,28-1.459-10.38-10.111-20.99-15-29-7.311-11.97-10.716-25.009-18-37-3.909-6.434-13.906-19.365-7-30,2.645-9.767,13.815-15.981,23-19,21.426-7.042,88.2-4.219,106,3,22.608,45.927-14.159,79.39-30,112h1c5.977-4.03,25.229-6.63,33-10,26.271-11.4,44.692-34.453,59-58,39.06-64.284,40.729-179.407,124-198v5c-3.878,4.223-4.881,9.863-8,15-11.844,19.507-16.915,40.643-24,66-1.294,4.631-7.008,25.692-5,29,2.8,1.84,10.5,1.154,15,1l37-2,40-7c23.212-7.078,44.5-15.508,63-27,7.863-4.885,22.71-7.814,23-20-6.41-7.543-8.15-27.462-12-38-7.915-21.657-12.747-44.1-20-68-4.166-13.727-8.415-30.511-9-47h58v-5c-3.87-3.169-5.07-7.823-8-12-8.97-12.794-17.8-25.871-27-39-27.422-39.118-49.49-80.021-66-131-5.943-18.351-7-38.063-11-58h2v2c14.8,17.162,11.755,52.44,36,60,2.187-7.347,8.671-12.216,12-18,2.539-4.411,1.952-9.169,4-14,4.947-11.668,10.77-25.335,15-38,10.945-32.776,14.2-69.11,23-104q2.5-18.5,5-37,7.5-44.5,15-89a155.367,155.367,0,0,0-74,18c-7.679,3.988-15.021,6.359-22,11-44.069,29.3-86.583,89.6-87,162h-2c-5.981-8.3-17.636-13.986-26-20-8.834-6.352-17.1-14.743-26-21-12.657-8.9-25.587-15.708-39-24-5.2-3.217-27.184-17.78-32-16-2.028,3.416-.6,9.835-4,12-7.058-6.674-20.065-8.36-30-12-28.8-10.552-77.495-19.388-115-9l-35,11c-6.006,2.524-11.672,6.818-19,8-1.273-3.239-.879-2.632-5-3-4.554,3.426-11.425,3.583-17,6a187.033,187.033,0,0,0-31,17c-14.564,10.146-27.691,22.317-42,33-7.365,5.5-13.651,14.658-23,18V374c-3.478-5.764-1.152-16-3-23-3.487-13.208-6.784-26.982-12-39C359.52,253.286,300.93,200.08,217,200ZM530,729c-21.1.205-37.688-2.579-56-4-2.427-9.537-9.529-12.987-14-20a92.451,92.451,0,0,1-14-47h2l24,8c19.115,8.319,34.254,21.254,48,35,5.647,5.647,15.665,11.5,17,21-2.868,1.078-4.622,1.221-6,4C530.248,727.073,530.4,726.946,530,729Zm187-13a30.439,30.439,0,0,0,7-1c7.1-17.2,22.98-29.767,38-39l9-3c8.753-5.642,13.865-11.9,29-12v2c4.644,7.288-5.128,30.713-8,35-2.674,3.991-9.592,16.823-13,19-16.388,10.47-39.074,16.225-61,7Q717.5,720,717,716Z"/>
  <path id="Заливка_цветом_3" data-name="Заливка цветом 3" class="cls-3" d="M719,321c-6.683,57.155,36.49,87.545,19,146-7.124,23.81-21.077,39.154-39,52-9,6.448-22.1,12.7-28,22q-1,5-2,10c-3.017,9.126-7.328,18.459-10,29q-0.5,7.5-1,15c-10.362,28.6-14.25,62.068-23,91-3.723,12.309-1.53,33.48-17,34-0.691-15.458-6.851-31.458-11-45-7.589-24.768-10.676-50.173-18-74l-14-60c-6.489-12.631-23.548-19.952-35-28a79.346,79.346,0,0,1-31-43c-7.255-23.684-.092-59.186,8-77,2.536-5.583,9.666-11.6,11-18,1.288-6.186-3.68-18.838-5-24V340c-1.439-6.341-2.638-14.573-4-20,32.334-15.2,84.017-33.361,133-21,15.147,3.822,30.914,7.239,45,13C703.84,314.8,710.877,319.685,719,321ZM608,379c-7.089,8.834-34.538,22.5-38,31-1.218,2.99-7.8,35.572-7,38,1.987,6,8.58,12.86,12,18,4.144,6.227,7.658,17.235,14,21,19.762,11.73,53.664,8.4,74,0,5.384-11.224,15.8-23.912,20-35v-1c1.048-4.429-1.539-8.173-2-11q0.5-6.5,1-13c-0.774-2.449-4.163-6.447-5-9-1.607-4.9.374-9.96-2-14-1.374-2.338-5.733-3.372-8-5C648.915,386.007,639.941,378.914,608,379ZM575,812h-4c-7.2-13.25-15.165-27.235-23-40-4.29-6.99-3.4-12.981-15-13-2.551,1.334-11.246-.473-15-1-10.325-1.449-21.107,3.2-32,0-4.31-1.266-7.556-5.606-12-7l-11-1c-4.477-2.108-12.157-13.084-16-16l-4-1c-1.764-1.569-1.118-5.449-3-7-10.451-8.615-23.63-15.281-33-25-9.871-10.238-18.8-35.364-24-51-3.983-11.973-9.947-29.512-7-45h1l40,20c-5.852-16.5-16.085-61.157-11-83l6-21h1v1c18.332,17.641,27.469,44.5,48,60,10.787,8.143,20.245,18.114,31,26,25.975,19.047,54.353,37.815,68,69C575.493,712.4,574.845,761.381,575,812Zm104-5h-4c-1.03-72.076,9.858-127.01,40-167,15.723-20.86,50.683-36.956,71-55a156.741,156.741,0,0,0,32-40c3.844-7.075,4.947-20.192,15-21,12.623,19.037,17.034,39.087,9,68-1.647,5.929-10.006,28.322-9,31,0.631,1.754.193,0.971,1,2,5.846-5.049,16.309-6.071,23-10,6.673-3.919,9.507-11.616,18-14v18c-2.493,4.068-.692,10.658-2,16-3,12.254-6.207,25.02-11,36-5.493,12.583-16.314,20.765-24,31-27.763,36.973-64.547,56.179-130,56C702.751,774.813,682.067,789.234,679,807ZM446,658c0.265,11.944,4.454,31.116,9,40,4.678,9.14,14.438,15.793,20,27,7.414,0.062,15.268.622,21,3,1.78,0.738,4.866,3.66,7,4l14-4,12,1c2.584-5.768,6.379-4.884,10-9-11.58-7.444-18.08-21.784-29-30C490.7,675.475,471.643,667.281,446,658Zm268,74c20.009-2.046,40.6-7.252,60-8,2.63-9.624,12.754-16.485,18-24,6.269-8.981,9.473-26.189,10-40-6.353-.406-10.314-0.044-18,0-4.1,9.254-14.868,11.688-23,17C742.1,689.343,717.6,704.667,714,732Zm-259,4v2l5,1v-1A25.766,25.766,0,0,0,455,736Zm19,9v2c2.328-.2,2.826-0.193,4-1Z"/>
</svg>
